<?xml version="1.0" encoding="UTF-8" standalone="no"?>
<!-- Created with Inkscape (http://www.inkscape.org/) -->

<svg xmlns:dc="http://purl.org/dc/elements/1.1/" 
   xmlns:cc="http://creativecommons.org/ns#" 
   xmlns:rdf="http://www.w3.org/1999/02/22-rdf-syntax-ns#" 
   xmlns:svg="http://www.w3.org/2000/svg" 
   xmlns="http://www.w3.org/2000/svg" 
   xmlns:xlink="http://www.w3.org/1999/xlink" 
   xmlns:sodipodi="http://sodipodi.sourceforge.net/DTD/sodipodi-0.dtd" 
   xmlns:inkscape="http://www.inkscape.org/namespaces/inkscape" width="1900" height="1200" viewBox="0 0 502.70832 317.50001" version="1.1" id="svg8" inkscape:version="0.92.4 (5da689c313, 2019-01-14)" sodipodi:docname="dibujo_noche.svg">
   <defs id="defs2">
      <linearGradient id="linearGradient5105" inkscape:collect="always">
         <stop id="stop5101" offset="0" style="stop-color:#000000;stop-opacity:1" />
         <stop id="stop5103" offset="1" style="stop-color:#4d4d4d;stop-opacity:1" />
      </linearGradient>
      <linearGradient inkscape:collect="always" id="linearGradient5087">
         <stop style="stop-color:#ffcc00;stop-opacity:1" offset="0" id="stop5083" />
         <stop style="stop-color:#ffeeaa;stop-opacity:1" offset="1" id="stop5085" />
      </linearGradient>
      <linearGradient inkscape:collect="always" xlink:href="#linearGradient5087" id="linearGradient5089" x1="91.292351" y1="185.94785" x2="127" y2="185.87498" gradientUnits="userSpaceOnUse" gradientTransform="matrix(-2.1492732,0,0,3.5821223,360.59469,-497.59714)" />
      <linearGradient inkscape:collect="always" xlink:href="#linearGradient5105" id="linearGradient5091" x1="95.25" y1="185.87497" x2="115.77468" y2="185.68256" gradientUnits="userSpaceOnUse" gradientTransform="matrix(2.1492732,0,0,3.5821223,-139.82776,-497.59728)" />
   </defs>
   <sodipodi:namedview id="base" pagecolor="#ffffff" bordercolor="#666666" borderopacity="1.0" inkscape:pageopacity="0.0" inkscape:pageshadow="2" inkscape:zoom="0.35" inkscape:cx="1137.7757" inkscape:cy="597.22678" inkscape:document-units="mm" inkscape:current-layer="layer1" showgrid="false" units="px" inkscape:snap-grids="false" inkscape:snap-text-baseline="false" inkscape:window-width="1366" inkscape:window-height="705" inkscape:window-x="-8" inkscape:window-y="-8" inkscape:window-maximized="1">
      <inkscape:grid type="xygrid" id="grid5069" />
   </sodipodi:namedview>
   <metadata id="metadata5">
      <rdf:RDF>
         <cc:Work rdf:about="">
            <dc:format>image/svg+xml</dc:format>
            <dc:type rdf:resource="http://purl.org/dc/dcmitype/StillImage" />
            <dc:title></dc:title>
         </cc:Work>
      </rdf:RDF>
   </metadata>
   <g inkscape:label="Capa 1" inkscape:groupmode="layer" id="layer1" transform="translate(0,20.500017)">
      <path inkscape:connector-curvature="0" id="path5077" d="M 8.0243225,206.14044 110.38346,35.541849 V 92.408078 L 64.890509,168.22964 h 22.746478 l 11.373233,-18.95537 11.37324,-18.95541 v 75.82158 z" style="fill:url(#linearGradient5091);fill-opacity:1;stroke:#000000;stroke-width:0.64478213;stroke-linecap:round;stroke-linejoin:round;stroke-miterlimit:4;stroke-dasharray:none;stroke-opacity:1;paint-order:normal" />
      <path style="fill:url(#linearGradient5089);fill-opacity:1;stroke:#000000;stroke-width:0.64478213;stroke-linecap:round;stroke-linejoin:round;stroke-miterlimit:4;stroke-dasharray:none;stroke-opacity:1" d="M 212.74263,206.1405 110.38346,35.541849 v 56.866229 l 45.49295,75.821592 H 133.12995 L 121.75672,149.2743 110.38346,130.31886 v 75.82158 z" id="path5079" inkscape:connector-curvature="0" />
      <flowRoot xml:space="preserve" id="flowRoot5115" style="font-style:normal;font-weight:normal;font-size:40px;line-height:1.25;font-family:sans-serif;letter-spacing:0px;word-spacing:0px;fill:#000000;fill-opacity:1;stroke:none" transform="matrix(0.26458333,0,0,0.26458333,0,-20.500017)">
         <flowRegion id="flowRegion5117">
            <rect id="rect5119" width="194.28572" height="42.857143" x="85.714287" y="1031.4286" />
         </flowRegion>
         <flowPara id="flowPara5121"></flowPara>
      </flowRoot>
      <flowRoot xml:space="preserve" id="flowRoot5123" style="font-style:normal;font-weight:normal;font-size:40px;line-height:1.25;font-family:sans-serif;letter-spacing:0px;word-spacing:0px;fill:#000000;fill-opacity:1;stroke:none" transform="matrix(0.26458333,0,0,0.26458333,0,-20.500017)">
         <flowRegion id="flowRegion5125">
            <rect id="rect5127" width="968.57141" height="651.42859" x="845.71429" y="205.71428" />
         </flowRegion>
         <flowPara id="flowPara5129" style="-inkscape-font-specification:'sans-serif, Normal';font-family:sans-serif;font-weight:normal;font-style:normal;font-stretch:normal;font-variant:normal;font-size:400.00000504px;text-anchor:middle;text-align:center;writing-mode:lr;font-variant-ligatures:normal;font-variant-caps:normal;font-variant-numeric:normal;font-feature-settings:normal">Arapy</flowPara>
         <flowPara id="flowPara5131" style="-inkscape-font-specification:'sans-serif, Normal';font-family:sans-serif;font-weight:normal;font-style:normal;font-stretch:normal;font-variant:normal;font-size:400.00000504px;text-anchor:middle;text-align:center;writing-mode:lr;font-variant-ligatures:normal;font-variant-caps:normal;font-variant-numeric:normal;font-feature-settings:normal">Project</flowPara>
      </flowRoot>
      <flowRoot xml:space="preserve" id="flowRoot5133" style="fill:black;fill-opacity:1;stroke:none;font-family:sans-serif;font-style:normal;font-weight:normal;font-size:40px;line-height:1.25;letter-spacing:0px;word-spacing:0px">
         <flowRegion id="flowRegion5135">
            <rect id="rect5137" width="1091.4286" height="731.42859" x="942.85712" y="240" />
         </flowRegion>
         <flowPara id="flowPara5139"></flowPara>
      </flowRoot>
      <flowRoot xml:space="preserve" id="flowRoot5179" style="font-style:normal;font-weight:normal;font-size:40px;line-height:1.25;font-family:sans-serif;letter-spacing:0px;word-spacing:0px;fill:#1a1a1a;fill-opacity:1;stroke:none;" transform="matrix(1.3103078,0,0,1.3103078,-992.20215,-274.21562)">
         <flowRegion id="flowRegion5181" style="fill:#1a1a1a;">
            <rect id="rect5183" width="960" height="642.85712" x="891.42859" y="214.28572" style="fill:#1a1a1a;" />
         </flowRegion>
         <flowPara id="flowPara5185" style="font-style:normal;font-variant:normal;font-weight:normal;font-stretch:normal;font-size:96px;font-family:Cambria;-inkscape-font-specification:'Cambria, Normal';font-variant-ligatures:normal;font-variant-caps:normal;font-variant-numeric:normal;font-feature-settings:normal;text-align:start;writing-mode:lr-tb;text-anchor:start;fill:#1a1a1a;">Arapy</flowPara>
         <flowPara id="flowPara5189" style="font-style:normal;font-variant:normal;font-weight:normal;font-stretch:normal;font-size:96px;font-family:Cambria;-inkscape-font-specification:'Cambria, Normal';font-variant-ligatures:normal;font-variant-caps:normal;font-variant-numeric:normal;font-feature-settings:normal;text-align:start;writing-mode:lr-tb;text-anchor:start;fill:#1a1a1a;" />
      </flowRoot>
      <flowRoot xml:space="preserve" id="flowRoot5205" style="font-style:normal;font-variant:normal;font-weight:normal;font-stretch:normal;font-size:53.33333588px;line-height:1.25;font-family:Cambria;-inkscape-font-specification:'Cambria, Normal';font-variant-ligatures:normal;font-variant-caps:normal;font-variant-numeric:normal;font-feature-settings:normal;text-align:start;letter-spacing:0px;word-spacing:0px;writing-mode:lr-tb;text-anchor:start;fill:#000000;fill-opacity:1;stroke:none" transform="matrix(1.3249226,0,0,1.3249226,-894.78213,-745.04602)">
         <flowRegion id="flowRegion5207" style="font-style:normal;font-variant:normal;font-weight:normal;font-stretch:normal;font-size:53.33333588px;font-family:Cambria;-inkscape-font-specification:'Cambria, Normal';font-variant-ligatures:normal;font-variant-caps:normal;font-variant-numeric:normal;font-feature-settings:normal;text-align:start;writing-mode:lr-tb;text-anchor:start">
            <rect id="rect5209" width="494.28571" height="165.71428" x="840" y="668.57141" style="font-style:normal;font-variant:normal;font-weight:normal;font-stretch:normal;font-size:53.33333588px;font-family:Cambria;-inkscape-font-specification:'Cambria, Normal';font-variant-ligatures:normal;font-variant-caps:normal;font-variant-numeric:normal;font-feature-settings:normal;text-align:start;writing-mode:lr-tb;text-anchor:start" />
         </flowRegion>
         <flowPara id="flowPara5211">Project</flowPara>
      </flowRoot>
      <path style="opacity:0.98999999;fill:#1a1a1a;stroke-width:5.39932537;stroke-linecap:round;stroke-linejoin:round;stroke-miterlimit:4;stroke-dasharray:none;paint-order:normal" d="m 667.49,526.1983 c 0,-2.20194 4.37831,-6.58677 9.72959,-9.74411 5.35127,-3.15732 13.29985,-11.8328 17.66351,-19.27883 4.36366,-7.44601 30.74243,-74.09688 58.61949,-148.11303 l 50.68557,-134.57483 18.07949,-0.79139 18.07949,-0.79138 41.37399,136.50567 c 22.75569,75.07812 44.34642,142.49242 47.97939,149.80956 4.48921,9.04171 9.76995,14.80557 16.48315,17.9912 5.43275,2.578 9.87775,6.55554 9.87775,8.83897 0,3.48117 -8.53628,4.15166 -52.85714,4.15166 -43.79857,0 -52.85714,-0.69652 -52.85714,-4.06415 0,-2.23525 4.54554,-5.56428 10.1012,-7.39782 20.74792,-6.84743 22.84109,-21.86023 9.69212,-69.51457 l -6.85783,-24.85404 -55.62577,0.77243 -55.62577,0.77243 -7.86257,24.28572 c -8.83672,27.29465 -10.2934,49.89285 -3.81252,59.14563 2.36202,3.37222 8.79059,7.61517 14.28571,9.42871 5.49513,1.81357 9.99114,5.12626 9.99114,7.36151 0,3.35472 -8.47853,4.06415 -48.57143,4.06415 -39.74809,0 -48.57142,-0.72726 -48.57142,-4.00349 z M 858.17909,403.77322 c -0.74297,-1.96429 -10.84481,-36.03046 -22.44854,-75.7026 -11.60373,-39.67215 -21.74055,-72.13183 -22.52627,-72.13263 -0.78571,-7.9e-4 -12.85826,32.45823 -26.82789,72.13118 -13.96963,39.67294 -26.00005,73.73976 -26.73426,75.70405 -1.03648,2.77297 9.98015,3.57142 49.27644,3.57142 39.30478,0 50.30958,-0.79785 49.26052,-3.57142 z" id="path5213" inkscape:connector-curvature="0" transform="matrix(0.26458333,0,0,0.26458333,0,-20.500017)" />
      <path style="opacity:0.98999999;fill:#1a1a1a;stroke-width:5.39932537;stroke-linecap:round;stroke-linejoin:round;stroke-miterlimit:4;stroke-dasharray:none;paint-order:normal" d="m 984.63285,525.84536 c 0,-2.39604 2.89286,-5.46277 6.42857,-6.81497 3.53572,-1.35219 8.99998,-5.31249 12.14288,-8.80067 5.4399,-6.03758 5.7143,-10.36096 5.7143,-90.02793 0,-77.47458 -0.3931,-84.12015 -5.2963,-89.53809 -2.9129,-3.21877 -9.02008,-6.6702 -13.57143,-7.66984 -5.62537,-1.23554 -8.27516,-3.57461 -8.27516,-7.3048 0,-5.09516 2.36026,-5.48727 33.03019,-5.48727 h 33.0301 l -1.9707,20 c -1.1541,11.71145 -0.8803,20 0.6606,20 1.4473,0 8.3635,-5.88834 15.3692,-13.08519 20.9863,-21.55868 34.1451,-27.78811 61.7603,-29.23754 l 23.8346,-1.251 v 26.07258 26.07258 h -10.1144 c -8.0835,0 -12.2975,-2.29486 -20.9862,-11.42858 -9.2981,-9.77426 -12.5994,-11.42857 -22.8066,-11.42857 -10.0632,0 -14.0071,1.90421 -25.1498,12.14286 -20.0811,18.45179 -20.943,22.12617 -20.943,89.28571 0,68.07088 1.7563,75.87907 18.2949,81.33732 5.6521,1.86536 10.2765,5.22042 10.2765,7.45569 0,3.34475 -8.0918,4.06414 -45.7143,4.06414 -39.05993,0 -45.71425,-0.63414 -45.71425,-4.35643 z" id="path5215" inkscape:connector-curvature="0" transform="matrix(0.26458333,0,0,0.26458333,0,-20.500017)" />
      <path style="opacity:0.98999999;fill:#1a1a1a;stroke-width:5.39932537;stroke-linecap:round;stroke-linejoin:round;stroke-miterlimit:4;stroke-dasharray:none;paint-order:normal" d="m 1200.3471,528.80948 c -12.0113,-5.64144 -16.9394,-10.07537 -23.9133,-21.51536 -7.1601,-11.74536 -8.185,-35.22891 -2.1528,-49.32696 11.1222,-25.9943 49.7379,-43.05401 111.3408,-49.18836 l 19.5603,-1.9478 -1.9822,-23.31461 c -3.325,-39.10741 -12.4607,-52.62324 -38.9251,-57.588 -21.7478,-4.07991 -47.7352,11.41802 -52.7675,31.46865 -1.5914,6.3403 -3.2583,7.09046 -15.7556,7.09046 h -13.976 V 349.16935 333.8512 l 21.4597,-9.00798 c 51.09,-21.44574 97.854,-23.09376 119.1442,-4.19881 3.267,2.89942 8.5402,11.05738 11.7182,18.12881 5.2029,11.57709 5.907,20.39521 7.0729,88.57142 0.7122,41.64286 2.5288,78.07314 4.037,80.95617 1.5082,2.88303 7.1388,7.07886 12.5123,9.32406 5.3735,2.24519 9.77,5.99349 9.77,8.32955 0,3.48872 -5.3585,4.24737 -30,4.24737 h -30 v -17.14286 c 0,-9.42857 -0.9879,-17.14286 -2.1952,-17.14286 -1.2074,0 -8.6003,5.32656 -16.4286,11.83679 -21.6609,18.01372 -39.3476,25.26587 -61.3762,25.16632 -10.2143,-0.0462 -22.4286,-1.89552 -27.1429,-4.1097 z m 72.3376,-26.02676 c 21.1507,-10.53981 29.6406,-25.75121 31.4075,-56.27247 l 1.3274,-22.93037 -22.5362,1.77937 c -30.3716,2.39801 -50.9189,8.99772 -63.279,20.32494 -9.1315,8.36836 -10.3965,11.27322 -11.4895,26.38301 -1.0949,15.13742 -0.41,17.95153 6.3139,25.94241 11.9894,14.24867 35.393,16.1662 58.2559,4.77311 z" id="path5217" inkscape:connector-curvature="0" transform="matrix(0.26458333,0,0,0.26458333,0,-20.500017)" />
      <path style="opacity:0.98999999;fill:#1a1a1a;stroke-width:5.39932537;stroke-linecap:round;stroke-linejoin:round;stroke-miterlimit:4;stroke-dasharray:none;paint-order:normal" d="m 1401.7757,625.95442 c 0,-2.33606 4.5082,-6.131 10.0182,-8.43323 5.9245,-2.47543 11.1782,-7.23706 12.8571,-11.65292 1.7289,-4.54725 2.839,-58.077 2.839,-136.89574 0,-125.36369 -0.1806,-129.65824 -5.7491,-136.73749 -3.162,-4.01984 -9.5906,-8.15253 -14.2857,-9.18376 -5.8633,-1.28779 -8.5366,-3.59335 -8.5366,-7.36222 0,-5.09724 2.3632,-5.48727 33.2483,-5.48727 h 33.2483 l -1.4907,18.57143 c -0.9483,11.81392 -0.4188,18.57142 1.4553,18.57142 1.6204,0 9.004,-5.66642 16.4081,-12.59204 17.7183,-16.57346 34.5579,-24.86262 54.0667,-26.61405 24.8279,-2.22896 39.2895,3.02497 56.2553,20.43767 17.1057,17.55638 23.8317,34.59785 26.4729,67.07384 5.3863,66.23031 -10.8084,108.03003 -49.6642,128.18725 -18.7371,9.7202 -58.1468,12.24232 -82.1698,5.25865 -8.7189,-2.53465 -17.4107,-4.60846 -19.3152,-4.60846 -4.8159,0 -2.5402,73.09529 2.5649,82.38474 2.0161,3.66875 8.0622,8.50743 13.4358,10.75263 5.3735,2.2452 9.77,5.99349 9.77,8.32955 0,3.58142 -7.1676,4.24737 -45.7143,4.24737 -38.5467,0 -45.7143,-0.66595 -45.7143,-4.24737 z m 145.405,-114.16412 c 20.0745,-10.38093 31.7663,-42.54542 31.6932,-87.1888 -0.1,-60.87711 -15.4851,-88.39269 -50.8557,-90.95116 -19.7918,-1.43161 -34.6888,4.86069 -48.3534,20.42378 -14.1812,16.15152 -15.9585,25.88604 -14.3782,78.75401 1.4856,49.69734 4.2342,62.25121 15.9056,72.64532 15.0022,13.36034 46.5314,16.37852 65.9885,6.31685 z" id="path5219" inkscape:connector-curvature="0" transform="matrix(0.26458333,0,0,0.26458333,0,-20.500017)" />
      <path style="opacity:0.98999999;fill:#1a1a1a;stroke-width:5.39932537;stroke-linecap:round;stroke-linejoin:round;stroke-miterlimit:4;stroke-dasharray:none;paint-order:normal" d="M 1659.6329,630.92084 1647.49,629.87322 V 607.18036 584.4875 h 8.4709 c 5.8768,0 9.5076,1.96867 11.8563,6.42857 4.5682,8.67469 8.0212,10.619 18.9503,10.67055 13.696,0.0646 29.5017,-15.74068 43.7199,-43.71888 l 11.8817,-23.38024 -35.9322,-96.40886 c -19.7627,-53.02488 -38.0872,-99.69773 -40.721,-103.71746 -2.6338,-4.01973 -8.455,-9.20448 -12.9359,-11.52166 -4.4809,-2.31717 -8.1471,-6.1086 -8.1471,-8.42539 0,-3.53618 7.338,-4.21234 45.7142,-4.21234 43.8096,0 45.7143,0.23809 45.7143,5.71428 0,3.2493 -1.9047,5.71429 -4.4156,5.71429 -2.4285,0 -7.7321,3.31658 -11.7857,7.37018 -6.3173,6.31724 -7.134,9.0725 -5.7166,19.28572 1.7084,12.30995 43.4587,132.99263 47.418,137.06585 2.816,2.89689 53.6198,-118.64031 56.1147,-134.24202 2.3424,-14.64898 -2.0047,-23.02616 -14.7019,-28.33138 -5.3735,-2.2452 -9.77,-5.9935 -9.77,-8.32955 0,-3.56963 6.8386,-4.24737 42.8571,-4.24737 34.8478,0 42.8572,0.74819 42.8572,4.00349 0,2.20193 -4.446,6.62667 -9.8799,9.83276 -12.1286,7.15606 -16.407,15.47246 -70.0502,136.16375 -22.3503,50.28571 -45.7105,101.22955 -51.9116,113.20854 -24.2053,46.75894 -45.9907,61.08686 -87.444,57.51051 z" id="path5221" inkscape:connector-curvature="0" transform="matrix(0.26458333,0,0,0.26458333,0,-20.500017)" />
      <path style="opacity:0.98999999;fill:#1a1a1a;stroke-width:5.39932537;stroke-linecap:round;stroke-linejoin:round;stroke-miterlimit:4;stroke-dasharray:none;paint-order:normal" d="m 841.77571,847.34464 c 0,-1.57142 1.19388,-2.85714 2.65306,-2.85714 1.45918,0 4.67347,-2.02041 7.14286,-4.4898 6.73775,-6.73774 6.73775,-149.99694 0,-156.73469 -2.46939,-2.46939 -5.68368,-4.48979 -7.14286,-4.48979 -1.45918,0 -2.65306,-1.28572 -2.65306,-2.85715 0,-3.77286 63.01814,-3.76239 82.92985,0.0138 28.86684,5.47449 42.86212,24.74203 38.60281,53.14517 -4.29728,28.65631 -22.06388,41.70303 -59.2082,43.47892 l -25.1816,1.20395 v 29.01478 c 0,29.93191 3.67743,41.71482 13.01915,41.71482 2.26804,0 4.1237,1.28572 4.1237,2.85714 0,1.70426 -10.95238,2.85715 -27.14285,2.85715 -16.19048,0 -27.14286,-1.15289 -27.14286,-2.85715 z m 78.47343,-86.91777 c 12.53766,-5.23857 19.07759,-18.04856 19.07759,-37.36794 0,-25.57865 -7.90735,-34.89826 -33.97959,-40.04837 -5.10714,-1.00883 -13.14286,-0.98706 -17.85714,0.0484 l -8.57143,1.8826 v 39.77299 39.77298 h 15.80605 c 8.69333,0 20.17936,-1.82728 25.52452,-4.06063 z" id="path5223" inkscape:connector-curvature="0" transform="matrix(0.26458333,0,0,0.26458333,0,-20.500017)" />
      <path style="opacity:0.98999999;fill:#1a1a1a;stroke-width:5.39932537;stroke-linecap:round;stroke-linejoin:round;stroke-miterlimit:4;stroke-dasharray:none;paint-order:normal" d="m 990.34714,848.90309 c 0,-0.71429 3.21428,-4.51299 7.14286,-8.44156 7.0228,-7.02284 7.1429,-7.90971 7.1429,-52.78293 0,-37.68146 -0.783,-46.423 -4.4898,-50.12987 -2.46943,-2.46939 -6.32657,-4.4898 -8.57147,-4.4898 -2.2449,0 -4.08163,-1.28571 -4.08163,-2.85714 0,-1.61751 8.21985,-2.85715 18.9453,-2.85715 h 18.9452 l -1.6143,9.94765 c -2.1651,13.34231 1.1612,14.50183 11.1437,3.88459 10.0653,-10.7052 23.251,-16.68938 36.774,-16.68938 h 10.0918 v 14.28572 c 0,13.33333 -0.4762,14.28571 -7.1428,14.28571 -3.9286,0 -7.1429,-1.25607 -7.1429,-2.79128 0,-1.5352 -3.2219,-4.90233 -7.1597,-7.4825 -6.1293,-4.01608 -8.4395,-4.16113 -16.0522,-1.00784 -16.23,6.72268 -19.6225,16.65876 -19.6346,57.50611 -0.01,29.13201 0.8684,37.10356 4.4791,40.71428 2.4694,2.46939 5.6837,4.4898 7.1429,4.4898 1.4592,0 2.6531,1.28572 2.6531,2.85714 0,1.68068 -10,2.85715 -24.2857,2.85715 -13.3572,0 -24.28576,-0.58442 -24.28576,-1.2987 z" id="path5225" inkscape:connector-curvature="0" transform="matrix(0.26458333,0,0,0.26458333,0,-20.500017)" />
      <path style="opacity:0.98999999;fill:#1a1a1a;stroke-width:5.39932537;stroke-linecap:round;stroke-linejoin:round;stroke-miterlimit:4;stroke-dasharray:none;paint-order:normal" d="m 1125.0592,845.35472 c -15.5224,-7.64797 -23.9332,-23.29763 -25.4631,-47.3785 -1.7281,-27.19986 2.8955,-43.4483 16.1292,-56.682 12.3713,-12.37129 30.3296,-18.17175 48.5346,-15.67648 17.039,2.33547 29.2205,10.48042 37.6246,25.15717 5.8695,10.25025 7.0341,16.08093 7.0341,35.21743 0,42.72982 -19.1139,64.28552 -56.878,64.14439 -10.2859,-0.0384 -21.3245,-1.99486 -26.9814,-4.78201 z m 42.5243,-5.2013 c 12.025,-6.21835 17.8207,-19.52008 19.2748,-44.23735 1.5416,-26.20318 -2.8927,-43.96392 -13.6659,-54.73719 -14.9733,-14.97331 -38.5251,-8.79503 -46.9748,12.32277 -5.7701,14.42097 -6.5681,48.61271 -1.5027,64.38291 7.4923,23.32532 24.1212,31.96353 42.8686,22.26886 z" id="path5227" inkscape:connector-curvature="0" transform="matrix(0.26458333,0,0,0.26458333,0,-20.500017)" />
      <path style="opacity:0.98999999;fill:#1a1a1a;stroke-width:5.39932537;stroke-linecap:round;stroke-linejoin:round;stroke-miterlimit:4;stroke-dasharray:none;paint-order:normal" d="m 1228.9981,902.23601 c -1.0093,-2.6303 -0.3895,-5.26423 1.3773,-5.85318 8.2304,-2.74347 17.6576,-14.37986 20.0532,-24.75247 2.9225,-12.65448 3.1501,-112.17386 0.2875,-125.71429 -1.0594,-5.0112 -4.4793,-9.74289 -8.2334,-11.39179 -11.0929,-4.87226 -7.0766,-7.17964 12.4971,-7.17964 h 18.9184 l -1.2889,70.71429 c -1.4176,77.77465 -3.037,86.20211 -18.7086,97.36125 -14.1111,10.04801 -22.7545,12.41369 -24.9026,6.81583 z" id="path5229" inkscape:connector-curvature="0" transform="matrix(0.26458333,0,0,0.26458333,0,-20.500017)" />
      <path style="opacity:0.98999999;fill:#1a1a1a;stroke-width:5.39932537;stroke-linecap:round;stroke-linejoin:round;stroke-miterlimit:4;stroke-dasharray:none;paint-order:normal" d="m 1250.3471,687.34464 v -11.42857 h 11.4286 11.4286 v 11.42857 11.42858 h -11.4286 -11.4286 z" id="path5231" inkscape:connector-curvature="0" transform="matrix(0.26458333,0,0,0.26458333,0,-20.500017)" />
      <path style="opacity:0.98999999;fill:#1a1a1a;stroke-width:5.39932537;stroke-linecap:round;stroke-linejoin:round;stroke-miterlimit:4;stroke-dasharray:none;paint-order:normal" d="m 1335.3237,843.84686 c -15.8683,-9.1973 -23.548,-26.69266 -23.548,-53.64507 0,-41.06391 19.7165,-64.28572 54.5818,-64.28572 13.5084,0 19.8205,1.43213 25.923,5.88155 10.6334,7.75303 20.9238,28.34318 20.9238,41.86671 v 10.82317 h -40 -40 v 13.86319 c 0,9.69948 1.9565,16.76649 6.5143,23.52981 12.329,18.29495 29.6187,21.53462 51.8481,9.71509 14.9995,-7.97526 22.0919,-6.93372 13.9666,2.05102 -15.3915,17.01944 -49.8157,22.02069 -70.2096,10.20025 z m 56.5064,-75.07364 c -0.8156,-3.92858 -2.2211,-10.67858 -3.1233,-15 -5.6436,-27.03192 -40.1453,-27.55168 -50.8627,-0.76624 -9.0261,22.55843 -8.637,22.90909 25.4146,22.90909 h 30.0544 z" id="path5233" inkscape:connector-curvature="0" transform="matrix(0.26458333,0,0,0.26458333,0,-20.500017)" />
      <path style="opacity:0.98999999;fill:#1a1a1a;stroke-width:5.39932537;stroke-linecap:round;stroke-linejoin:round;stroke-miterlimit:4;stroke-dasharray:none;paint-order:normal" d="m 1464.3411,843.73551 c -15.3371,-10.21544 -21.1368,-24.96712 -21.1368,-53.7619 0,-22.26648 0.7858,-25.77895 8.5714,-38.31273 11.5354,-18.57044 25.5979,-25.77981 50,-25.63333 10.2143,0.0613 22.1072,1.05009 26.4286,2.19729 7.0921,1.88273 7.8571,3.33235 7.8571,14.88852 0,11.50623 -0.6748,12.80271 -6.6641,12.80271 -4.567,0 -8.8399,-3.37175 -13.5778,-10.71428 -11.9948,-18.58892 -34.8764,-15.4598 -45.3634,6.20358 -7.1249,14.71801 -8.1195,53.4842 -1.7626,68.69842 7.9299,18.97885 33.9116,23.7487 53.4762,9.81744 10.6914,-7.61296 16.4528,-4.24247 8.0455,4.70672 -15.5828,16.58708 -47.9301,21.05933 -65.8741,9.10756 z" id="path5235" inkscape:connector-curvature="0" transform="matrix(0.26458333,0,0,0.26458333,0,-20.500017)" />
      <path style="opacity:0.98999999;fill:#1a1a1a;stroke-width:5.39932537;stroke-linecap:round;stroke-linejoin:round;stroke-miterlimit:4;stroke-dasharray:none;paint-order:normal" d="m 1583.9185,847.11576 c -11.2408,-6.54714 -13.5714,-17.52325 -13.5714,-63.91494 v -44.4276 h -10 c -10.9285,0 -13.4209,-4.24346 -4.2096,-7.16702 7.5056,-2.38217 13.294,-11.56433 15.7448,-24.97584 1.7281,-9.45642 2.9269,-10.71429 10.2114,-10.71429 8.0994,0 8.2534,0.29327 8.2534,15.71429 v 15.71428 h 20 c 18.0953,0 20,0.54422 20,5.71429 0,5.17549 -1.9047,5.71429 -20.2011,5.71429 h -20.2011 l 0.9154,44.54458 c 0.8913,43.37354 1.1004,44.69418 7.951,50.23519 6.8907,5.57351 12.5041,5.74782 27.9644,0.86839 9.4162,-2.97184 7.8064,1.95873 -3.0535,9.35184 -10.1641,6.91949 -30.7014,8.64412 -39.8037,3.34254 z" id="path5237" inkscape:connector-curvature="0" transform="matrix(0.26458333,0,0,0.26458333,0,-20.500017)" />
      <path style="opacity:0.98999999;fill:#b3b3b3;stroke-width:5.39932537;stroke-linecap:round;stroke-linejoin:round;stroke-miterlimit:4;stroke-dasharray:none;paint-order:normal" d="m 1585.9622,847.48315 c -12.5959,-5.10563 -13.7729,-9.81448 -15.0881,-60.36298 l -1.2578,-48.34695 h -7.7298 c -11.4915,0 -12.5613,-3.15505 -3.0344,-8.94874 4.892,-2.975 9.2056,-8.52412 10.1875,-13.1055 3.477,-16.22304 6.8052,-21.23173 13.478,-20.28372 5.5592,0.78979 6.514,2.86535 7.2602,15.78214 l 0.8591,14.87276 19.1409,0.84153 c 14.7352,0.64784 19.1408,1.82794 19.1408,5.12724 0,3.3028 -4.4231,4.47947 -19.2857,5.13054 l -19.2858,0.84483 v 38.01454 c 0,42.19224 2.9273,55.09192 13.4061,59.07592 7.3429,2.79177 19.8327,0.95318 25.8797,-3.80964 4.5412,-3.57686 4.4821,0.7603 -0.091,6.67134 -7.0569,9.1217 -30.6767,13.72682 -43.5798,8.49669 z" id="path5239" inkscape:connector-curvature="0" transform="matrix(0.26458333,0,0,0.26458333,0,-20.500017)" />
      <path style="opacity:0.98999999;fill:#b3b3b3;stroke-width:5.39932537;stroke-linecap:round;stroke-linejoin:round;stroke-miterlimit:4;stroke-dasharray:none;paint-order:normal" d="m 667.49,526.39476 c 0,-2.09386 4.78617,-6.91529 10.63594,-10.71429 6.72997,-4.3706 13.61421,-12.74091 18.74573,-22.79223 4.46038,-8.73674 30.42824,-74.95102 57.70636,-147.14286 l 49.59658,-131.25788 18.08626,-0.80381 18.08627,-0.80381 34.07358,112.23238 c 55.79616,183.78273 56.98725,186.8533 75.21213,193.89338 3.53572,1.3658 6.42857,4.44369 6.42857,6.83972 0,3.74683 -7.39642,4.35643 -52.85714,4.35643 -43.79857,0 -52.85714,-0.69652 -52.85714,-4.06415 0,-2.23525 4.54554,-5.56428 10.1012,-7.39782 20.74895,-6.84778 22.91957,-23.06803 9.36304,-69.9666 l -6.6071,-22.85715 H 807.61984 752.0354 l -7.86472,24.28572 c -8.83862,27.29301 -10.29617,49.892 -3.81468,59.14563 2.36202,3.37222 8.79059,7.61517 14.28571,9.42871 5.49513,1.81357 9.99114,5.12626 9.99114,7.36151 0,3.35472 -8.47853,4.06415 -48.57143,4.06415 -38.55547,0 -48.57142,-0.78506 -48.57142,-3.80703 z M 856.58424,405.86945 c 1.3756,-1.3756 -39.70808,-144.24888 -42.22954,-146.85814 -2.28362,-2.36313 -4.27178,2.59633 -28.44253,70.94973 -13.49414,38.16058 -25.22559,71.18304 -26.06988,73.38324 -1.27863,3.33204 6.55106,4.00036 46.86583,4.00036 26.62051,0 49.06476,-0.66383 49.87612,-1.47519 z" id="path5241" inkscape:connector-curvature="0" transform="matrix(0.26458333,0,0,0.26458333,0,-20.500017)" />
      <path style="opacity:0.98999999;fill:#b3b3b3;stroke-width:5.39932537;stroke-linecap:round;stroke-linejoin:round;stroke-miterlimit:4;stroke-dasharray:none;paint-order:normal" d="m 984.63285,525.98944 c 0,-2.31678 3.81903,-6.18723 8.48673,-8.601 15.40932,-7.96846 15.79902,-10.36553 15.79902,-97.18665 0,-88.16533 -0.3317,-90.0243 -17.14481,-96.10401 -6.38151,-2.30759 -9.99808,-5.47475 -9.99808,-8.75567 0,-4.65257 3.13414,-5.14032 33.03019,-5.14032 h 33.0301 l -1.9707,20 c -1.1541,11.71145 -0.8803,20 0.6606,20 1.4473,0 8.3635,-5.88834 15.3692,-13.08519 20.9863,-21.55868 34.1451,-27.78811 61.7603,-29.23754 l 23.8346,-1.251 v 26.07258 26.07258 h -10.4389 c -8.5155,0 -12.3829,-2.10577 -20.9897,-11.42858 -8.0862,-8.75897 -12.6886,-11.42857 -19.703,-11.42857 -11.2153,0 -22.1085,5.4565 -32.2883,16.1735 -14.9462,15.735 -16.5801,24.2772 -16.5801,86.68365 0,66.52068 1.8203,74.47164 18.2949,79.90874 5.6521,1.86536 10.2765,5.22042 10.2765,7.45569 0,3.34475 -8.0918,4.06414 -45.7143,4.06414 -38.37622,0 -45.71425,-0.67617 -45.71425,-4.21235 z" id="path5243" inkscape:connector-curvature="0" transform="matrix(0.26458333,0,0,0.26458333,0,-20.500017)" />
      <path style="opacity:0.98999999;fill:#b3b3b3;stroke-width:5.39932537;stroke-linecap:round;stroke-linejoin:round;stroke-miterlimit:4;stroke-dasharray:none;paint-order:normal" d="m 1196.6989,527.00581 c -30.487,-15.09076 -36.0664,-61.74997 -10.2751,-85.92821 17.1231,-16.05216 52.8412,-27.68275 99.1876,-32.2977 l 19.55,-1.94668 -1.919,-20.45858 c -3.7805,-40.30386 -10.9478,-53.12017 -33.0324,-59.06692 -23.1047,-6.22145 -45.5688,3.85821 -55.5771,24.93749 -5.5174,11.62047 -6.182,12.03879 -19.2858,12.13875 l -13.5714,0.10354 v -15.44766 -15.44767 l 21.158,-8.80809 c 54.1477,-22.54176 102.9866,-23.0648 122.3045,-1.30981 12.9658,14.60164 14.5364,24.70302 15.9278,102.4418 0.7313,40.85715 2.4452,77.24076 3.8086,80.85249 1.3635,3.61172 6.9872,8.4504 12.4972,10.75262 5.51,2.30223 10.0182,6.09718 10.0182,8.43324 0,3.48872 -5.3585,4.24737 -30,4.24737 h -30 v -17.14286 c 0,-9.42857 -0.7514,-17.14286 -1.6699,-17.14286 -0.9184,0 -8.9541,5.71242 -17.8571,12.69426 -23.2515,18.23408 -38.3238,24.31145 -60.473,24.3836 -13.2555,0.0432 -22.0692,-1.67087 -30.7911,-5.98812 z m 70.1686,-21.2413 c 12.5717,-5.25152 25.1579,-16.61311 31.1778,-28.1443 2.382,-4.56273 5.0362,-18.58549 5.8982,-31.16168 l 1.5672,-22.86582 -22.888,1.90879 c -52.6857,4.39382 -75.1327,19.6504 -75.1327,51.06553 0,6.79981 2.0935,15.35223 4.6523,19.00537 9.6914,13.83638 34.8044,18.51348 54.7252,10.19211 z" id="path5245" inkscape:connector-curvature="0" transform="matrix(0.26458333,0,0,0.26458333,0,-20.500017)" />
      <path style="opacity:0.98999999;fill:#b3b3b3;stroke-width:5.39932537;stroke-linecap:round;stroke-linejoin:round;stroke-miterlimit:4;stroke-dasharray:none;paint-order:normal" d="m 1401.7757,625.95442 c 0,-2.33606 4.4185,-6.09355 9.819,-8.35 15.8963,-6.64192 16.3176,-10.85846 15.3404,-153.53371 -0.8185,-119.49818 -1.2084,-127.92934 -6.1699,-133.40948 -2.913,-3.21741 -9.0201,-6.66773 -13.5715,-7.66737 -5.6253,-1.23554 -8.2751,-3.57461 -8.2751,-7.3048 0,-5.09544 2.3606,-5.48727 33.0592,-5.48727 h 33.0593 l -0.6989,17.12234 c -0.3843,9.41729 0.1478,17.96891 1.1825,19.00359 1.0347,1.03469 8.147,-3.97964 15.8052,-11.14296 18.1668,-16.99297 34.8788,-25.28212 54.5287,-27.04621 24.8279,-2.22896 39.2895,3.02497 56.2553,20.43767 17.1935,17.64646 23.6237,34.07861 26.5189,67.76858 5.9889,69.68954 -15.7623,117.69484 -59.7672,131.90684 -18.4666,5.96404 -53.0469,6.20702 -74.2287,0.52158 -8.6429,-2.31984 -16.8463,-4.23316 -18.2299,-4.25181 -3.8424,-0.0518 -0.5152,74.56952 3.6719,82.35083 1.9741,3.66875 7.9858,8.50743 13.3594,10.75263 5.3735,2.2452 9.77,5.99349 9.77,8.32955 0,3.58142 -7.1676,4.24737 -45.7143,4.24737 -38.5467,0 -45.7143,-0.66595 -45.7143,-4.24737 z m 135.6809,-110.37658 c 14.3914,-3.99532 28.0127,-18.30244 34.2391,-35.96299 6.2215,-17.64693 8.8513,-68.48052 4.6897,-90.65494 -6.7167,-35.78946 -21.0535,-52.85461 -46.4549,-55.29536 -27.6405,-2.65591 -55.3871,16.30222 -62.6464,42.80388 -5.2938,19.32563 -1.7017,102.27983 5.0135,115.78173 10.7979,21.71071 37.0846,31.12165 65.159,23.32768 z" id="path5247" inkscape:connector-curvature="0" transform="matrix(0.26458333,0,0,0.26458333,0,-20.500017)" />
      <path style="opacity:0.98999999;fill:#b3b3b3;stroke-width:5.39932537;stroke-linecap:round;stroke-linejoin:round;stroke-miterlimit:4;stroke-dasharray:none;paint-order:normal" d="M 1658.2043,631.0059 1647.49,629.85684 V 607.17216 584.4875 h 8.4709 c 5.8768,0 9.5076,1.96867 11.8563,6.42857 4.6067,8.74777 8.0179,10.61937 19.4483,10.67055 13.0062,0.0583 29.6008,-17.14714 44.2331,-45.86112 l 10.8225,-21.238 -34.5331,-92.20715 c -39.6791,-105.94735 -43.02,-113.24158 -54.6118,-119.23592 -4.6988,-2.42988 -8.5433,-6.31351 -8.5433,-8.6303 0,-3.53618 7.338,-4.21234 45.7142,-4.21234 42.9363,0 45.7143,0.32843 45.7143,5.40455 0,3.37469 -2.6691,6.07446 -7.1067,7.18822 -10.3188,2.58986 -16.8232,13.9753 -14.8678,26.02504 2.1509,13.25459 45.4135,135.6679 47.9469,135.6679 3.7062,0 52.2588,-116.12322 55.6324,-133.05571 2.5485,-12.7913 -3.0061,-23.77045 -14.4437,-28.5494 -5.51,-2.30222 -10.0182,-6.09718 -10.0182,-8.43323 0,-3.56963 6.8386,-4.24737 42.8571,-4.24737 34.8478,0 42.8572,0.74819 42.8572,4.00349 0,2.20193 -4.205,6.4845 -9.3444,9.51683 -12.0604,7.11582 -18.1639,18.88198 -67.8315,130.76539 -60.6776,136.68517 -72.5815,157.57763 -96.7026,169.72309 -11.5297,5.80548 -30.4581,8.55174 -46.8358,6.79531 z" id="path5249" inkscape:connector-curvature="0" transform="matrix(0.26458333,0,0,0.26458333,0,-20.500017)" />
      <path style="opacity:0.98999999;fill:#b3b3b3;stroke-width:5.39932537;stroke-linecap:round;stroke-linejoin:round;stroke-miterlimit:4;stroke-dasharray:none;paint-order:normal" d="m 1473.9186,847.25561 c -3.5357,-1.42118 -6.4286,-1.99105 -6.4286,-1.26636 0,5.21021 -15.0928,-13.42404 -18.8579,-23.28281 -6.2664,-16.40827 -4.7131,-63.62757 2.3246,-70.66522 2.5661,-2.56615 7.0458,-7.6915 9.9548,-11.38965 6.9508,-8.83654 20.8656,-13.15201 43.9548,-13.63186 24.2613,-0.50423 31.1951,3.10314 31.1951,16.22942 0,15.21729 -7.0134,15.79742 -19.9456,1.64983 -8.1445,-8.91005 -12.9714,-11.84003 -19.5051,-11.84003 -11.6443,0 -24.4532,11.26233 -28.6178,25.16226 -4.1911,13.98886 -4.3678,46.09163 -0.3126,56.7946 8.0142,21.15167 25.9018,28.23363 46.3321,18.34349 19.1011,-9.2467 25.7668,-7.03104 12.7633,4.24251 -12.1774,10.55738 -38.6022,15.3836 -52.8571,9.65382 z" id="path5251" inkscape:connector-curvature="0" transform="matrix(0.26458333,0,0,0.26458333,0,-20.500017)" />
      <path style="opacity:0.98999999;fill:#b3b3b3;stroke-width:5.39932537;stroke-linecap:round;stroke-linejoin:round;stroke-miterlimit:4;stroke-dasharray:none;paint-order:normal" d="m 1351.3745,848.76816 c -30.0455,-8.87139 -37.6733,-20.75224 -37.6733,-58.67905 0,-25.03224 3.4758,-37.46093 14.0343,-50.18312 5.7865,-6.97229 23.002,-13.03772 37.5985,-13.24681 14.0967,-0.20194 37.4254,8.21085 34.7542,12.53303 -0.8425,1.36318 0.4709,3.24701 2.9186,4.18628 2.4477,0.93928 3.739,2.85877 2.8696,4.26554 -0.8694,1.40677 -0.4335,2.55776 0.9688,2.55776 1.4022,0 2.7165,1.60714 2.9205,3.57143 0.2041,1.96428 1.2284,9.67857 2.2764,17.14285 l 1.9053,13.57143 h -40.3715 -40.3716 v 12.14286 c 0.013,34.23277 33.6445,53.07074 60.2448,33.74439 5.0669,-3.68134 8.6618,-4.52708 11.4286,-2.68871 3.2299,2.14611 2.0741,4.36619 -5.7847,11.11107 -5.4016,4.636 -10.3405,7.90972 -10.9752,7.27494 -0.6348,-0.63477 -6.5732,0.47676 -13.1965,2.47007 -9.4562,2.84589 -14.5139,2.89443 -23.5512,0.22603 z m 40.1092,-80.70923 c -4.1732,-24.42992 -12.408,-35 -27.2674,-35 -10.6091,0 -24.5319,12.4977 -28.0554,25.18365 -5.0275,18.10161 -5.678,17.67349 26.8542,17.67349 h 29.8108 z" id="path5253" inkscape:connector-curvature="0" transform="matrix(0.26458333,0,0,0.26458333,0,-20.500017)" />
      <path style="opacity:0.98999999;fill:#b3b3b3;stroke-width:5.39932537;stroke-linecap:round;stroke-linejoin:round;stroke-miterlimit:4;stroke-dasharray:none;paint-order:normal" d="m 1229.4142,902.60214 c -1.037,-1.03695 3.2487,-6.62517 9.5238,-12.41826 l 11.4091,-10.53289 v -70.27688 c 0,-69.06708 -0.1077,-70.35231 -6.2562,-74.65888 -3.4409,-2.4101 -5.6909,-4.87694 -5,-5.48186 0.691,-0.60492 8.7739,-1.84019 17.9621,-2.74504 l 16.7059,-1.6452 -1.4753,69.1079 c -1.6238,76.06304 -2.1882,81.84883 -8.9985,92.24263 -8.0548,12.29323 -28.2182,22.0612 -33.8709,16.40848 z" id="path5255" inkscape:connector-curvature="0" transform="matrix(0.26458333,0,0,0.26458333,0,-20.500017)" />
      <path style="opacity:0.98999999;fill:#b3b3b3;stroke-width:5.39932537;stroke-linecap:round;stroke-linejoin:round;stroke-miterlimit:4;stroke-dasharray:none;paint-order:normal" d="m 1250.3471,687.34464 v -11.42857 h 11.4286 11.4286 v 11.42857 11.42858 h -11.4286 -11.4286 z" id="path5257" inkscape:connector-curvature="0" transform="matrix(0.26458333,0,0,0.26458333,0,-20.500017)" />
      <path style="opacity:0.98999999;fill:#b3b3b3;stroke-width:5.39932537;stroke-linecap:round;stroke-linejoin:round;stroke-miterlimit:4;stroke-dasharray:none;paint-order:normal" d="m 1136.2336,848.0938 c -24.9763,-6.39909 -35.2902,-22.94414 -36.0888,-57.89201 -0.4119,-18.02539 0.6997,-23.79866 6.9992,-36.35216 4.1189,-8.20797 9.0321,-14.95797 10.9183,-15 1.8862,-0.042 4.74,-2.32641 6.3417,-5.07641 1.6017,-2.75 2.9513,-3.99048 2.9991,-2.75662 0.048,1.23386 2.8983,0.73878 6.3344,-1.10018 10.7562,-5.75655 24.7498,-6.09642 40.9684,-0.99503 8.6027,2.70588 15.6412,5.72119 15.6412,6.70071 0,0.97951 3.4196,5.46875 7.599,9.97608 6.6033,7.12137 7.8265,11.42269 9.3357,32.82795 1.4511,20.58232 0.8083,26.98187 -3.9093,38.91851 -3.1052,7.85715 -7.8859,15.9215 -10.6238,17.9208 -2.7378,1.99929 -6.9696,5.62684 -9.404,8.06122 -2.4344,2.43438 -4.4261,3.80783 -4.4261,3.0521 0,-0.75572 -6.1072,0.21694 -13.5715,2.16149 -11.0842,2.88758 -16.4197,2.80577 -29.1135,-0.44645 z m 33.3255,-8.89882 c 11.0589,-5.91854 16.5,-22.54582 16.5,-50.42176 0,-37.27578 -11.1715,-55.71429 -33.7562,-55.71429 -9.2613,0 -21.756,10.2525 -26.5877,21.81652 -5.3628,12.83496 -5.1213,52.61797 0.4015,66.13239 8.2656,20.22641 25.8649,27.59433 43.4424,18.18714 z" id="path5259" inkscape:connector-curvature="0" transform="matrix(0.26458333,0,0,0.26458333,0,-20.500017)" />
      <path style="opacity:0.98999999;fill:#b3b3b3;stroke-width:5.39932537;stroke-linecap:round;stroke-linejoin:round;stroke-miterlimit:4;stroke-dasharray:none;paint-order:normal" d="m 993.20428,846.94534 c 0,-1.79105 2.25,-4.89901 5,-6.90658 7.29412,-5.32486 9.21232,-89.44857 2.28092,-100.0273 -2.50554,-3.82389 -6.77587,-6.99163 -9.48964,-7.03941 -9.737,-0.17145 3.04043,-4.80516 18.73424,-6.79395 l 15.097,-1.91315 -0.6741,10.0103 c -0.8007,11.88928 2.5907,16.55032 6.6997,9.20791 3.9561,-7.06918 30.0976,-18.93317 41.7941,-18.96775 l 9.4423,-0.0279 -0.8708,13.54573 c -0.9878,15.36397 -6.7645,19.0379 -15.611,9.92831 -7.8427,-8.07599 -13.3711,-9.12047 -23.1658,-4.37675 -14.1561,6.85601 -17.8083,18.43611 -17.8083,56.46438 0,31.26896 0.4105,33.68008 6.828,40.09759 8.5404,8.54038 5.5399,10.05503 -19.9189,10.05503 -11.81943,0 -18.33772,-1.15753 -18.33772,-3.25645 z" id="path5261" inkscape:connector-curvature="0" transform="matrix(0.26458333,0,0,0.26458333,0,-20.500017)" />
      <path style="opacity:0.98999999;fill:#b3b3b3;stroke-width:5.39932537;stroke-linecap:round;stroke-linejoin:round;stroke-miterlimit:4;stroke-dasharray:none;paint-order:normal" d="m 845.62311,848.40155 c -2.07403,-0.84908 -0.75033,-3.89424 3.57143,-8.216 l 6.86688,-6.86688 v -71.68831 -71.68831 l -6.85024,-6.85024 -6.85024,-6.85025 8.28108,-1.81883 c 13.54168,-2.97425 68.80655,-0.41374 81.13369,3.75906 21.40289,7.24497 32.50987,22.55326 31.60513,43.56005 -1.38366,32.12688 -19.62038,47.1638 -61.07729,50.36073 l -23.38498,1.80332 v 26.53338 c 0,29.81233 3.03128,41.02444 11.7045,43.29253 4.50651,1.17848 5.01032,2.12602 2.10845,3.96549 -3.9619,2.51141 -41.32953,3.07005 -47.10841,0.70426 z m 72.67093,-88.28324 c 14.76771,-5.90887 20.62453,-16.69851 20.62453,-37.99529 0,-30.50756 -15.88246,-41.02918 -57.14286,-37.8553 -1.75824,0.13525 -2.85714,15.6044 -2.85714,40.21978 v 40 h 14.22789 c 7.82535,0 19.14175,-1.96613 25.14758,-4.36919 z" id="path5263" inkscape:connector-curvature="0" transform="matrix(0.26458333,0,0,0.26458333,0,-20.500017)" />
   </g>
</svg>
